# xmcd
#
# Track frame offsets:
#	150
#	16440
#	32753
#	49949
#	78859
#	96595
#	110258
#	126630
#	142673
#	169115
#	187955
#	220803
#	232406
#	246529
#
# Disc length: 3674 seconds
#
# Revision: 1
# Processed by: cddbd v1.5.2PL0 Copyright (c) Steve Scherf et al.
# Submitted via: audiograbber 1.83.01
#
DISCID=c90e580e
DTITLE=59 Container Blues Band - Dure bi rot
DYEAR=1995
DGENRE=Blues
TTITLE0=Hürlimaa Blues
TTITLE1=Unbeschriiblichs Gfühl
TTITLE2=Züri Song
TTITLE3=Ballad of the Mystery Man
TTITLE4=Thursday Night Blues
TTITLE5=I want your Love
TTITLE6=Mäge's Shuffle
TTITLE7=Loverman
TTITLE8=Insle
TTITLE9=Näb de Schue
TTITLE10=Leave my Girl alone
TTITLE11=Watermelon Man
TTITLE12=I feel good
TTITLE13=Befor you go
EXTD=
EXTT0=
EXTT1=
EXTT2=
EXTT3=
EXTT4=
EXTT5=
EXTT6=
EXTT7=
EXTT8=
EXTT9=
EXTT10=
EXTT11=
EXTT12=
EXTT13=
PLAYORDER=
